<?xml version="1.0" encoding="UTF-8" standalone="no"?>
<!-- Created with Inkscape (http://www.inkscape.org/) -->

<svg
   xmlns:dc="http://purl.org/dc/elements/1.1/"
   xmlns:cc="http://creativecommons.org/ns#"
   xmlns:rdf="http://www.w3.org/1999/02/22-rdf-syntax-ns#"
   xmlns:svg="http://www.w3.org/2000/svg"
   xmlns="http://www.w3.org/2000/svg"
   xmlns:sodipodi="http://sodipodi.sourceforge.net/DTD/sodipodi-0.dtd"
   xmlns:inkscape="http://www.inkscape.org/namespaces/inkscape"
   width="575.47998"
   height="575.47998"
   id="svg2"
   version="1.1"
   inkscape:version="0.48.4 r9939"
   sodipodi:docname="network-rabbit.svg"
   inkscape:export-filename="/home/gerard/projects/freenet/marketing/newsite/originals/network-rabbit-favicon.png"
   inkscape:export-xdpi="55.43034"
   inkscape:export-ydpi="55.43034">
  <defs
     id="defs4">
    <filter
       inkscape:collect="always"
       id="filter4243"
       color-interpolation-filters="sRGB">
      <feGaussianBlur
         inkscape:collect="always"
         stdDeviation="9.3330188"
         id="feGaussianBlur4245" />
    </filter>
    <filter
       inkscape:collect="always"
       id="filter4584"
       color-interpolation-filters="sRGB">
      <feGaussianBlur
         inkscape:collect="always"
         stdDeviation="10.682813"
         id="feGaussianBlur4586" />
    </filter>
    <filter
       inkscape:collect="always"
       id="filter4630"
       x="-0.078965448"
       width="1.1579309"
       y="-0.39707851"
       height="1.794157"
       color-interpolation-filters="sRGB">
      <feGaussianBlur
         inkscape:collect="always"
         stdDeviation="10.425401"
         id="feGaussianBlur4632" />
    </filter>
    <filter
       inkscape:collect="always"
       id="filter5014"
       x="-0.074186392"
       width="1.1483728"
       y="-0.11259296"
       height="1.2251859"
       color-interpolation-filters="sRGB">
      <feGaussianBlur
         inkscape:collect="always"
         stdDeviation="15.49038"
         id="feGaussianBlur5016" />
    </filter>
  </defs>
  <sodipodi:namedview
     id="base"
     pagecolor="#000000"
     bordercolor="#666666"
     borderopacity="1.0"
     inkscape:pageopacity="1"
     inkscape:pageshadow="2"
     inkscape:zoom="0.24748738"
     inkscape:cx="492.07248"
     inkscape:cy="168.96556"
     inkscape:document-units="px"
     inkscape:current-layer="layer4"
     showgrid="false"
     showguides="true"
     inkscape:guide-bbox="true"
     inkscape:window-width="1918"
     inkscape:window-height="1059"
     inkscape:window-x="0"
     inkscape:window-y="19"
     inkscape:window-maximized="0"
     fit-margin-top="0"
     fit-margin-left="0"
     fit-margin-right="0"
     fit-margin-bottom="0" />
  <metadata
     id="metadata7">
    <rdf:RDF>
      <cc:Work
         rdf:about="">
        <dc:format>image/svg+xml</dc:format>
        <dc:type
           rdf:resource="http://purl.org/dc/dcmitype/StillImage" />
        <dc:title></dc:title>
      </cc:Work>
    </rdf:RDF>
  </metadata>
  <g
     inkscape:groupmode="layer"
     id="layer4"
     inkscape:label="Black"
     style="display:inline"
     transform="translate(-25.069597,-328.74304)" />
  <g
     inkscape:groupmode="layer"
     id="layer2"
     inkscape:label="Lines"
     style="display:inline"
     transform="translate(-25.069597,-328.74304)" />
  <g
     inkscape:groupmode="layer"
     id="layer5"
     inkscape:label="Dots"
     style="display:inline"
     transform="translate(-25.069597,-328.74304)" />
  <g
     inkscape:groupmode="layer"
     id="layer3"
     inkscape:label="Layer#1"
     style="display:inline"
     transform="translate(-25.069597,-328.74304)">
    <g
       id="g5939"
       transform="matrix(1.6607039,0,0,1.6607039,-206.01589,-330.74943)">
      <path
         inkscape:connector-curvature="0"
         id="path4352"
         d="M 352.02468,551.10395 238.35154,623.19238"
         style="fill:none;stroke:#4aadff;stroke-width:14.12820816;stroke-linecap:butt;stroke-linejoin:miter;stroke-miterlimit:4;stroke-opacity:1;stroke-dasharray:none;stroke-dashoffset:0;display:inline"
         sodipodi:nodetypes="cc"
         inkscape:export-filename="/home/gerard/projects/freenet/marketing/newsite/assets/img/logo-net-small.png"
         inkscape:export-xdpi="8.0090485"
         inkscape:export-ydpi="8.0090485" />
      <path
         inkscape:connector-curvature="0"
         id="path4358"
         d="m 512.93047,644.84907 33.24084,97.27368"
         style="fill:none;stroke:#4aadff;stroke-width:14.12820816;stroke-linecap:butt;stroke-linejoin:miter;stroke-miterlimit:4;stroke-opacity:1;stroke-dasharray:none;stroke-dashoffset:0;display:inline"
         sodipodi:nodetypes="cc"
         inkscape:export-filename="/home/gerard/projects/freenet/marketing/newsite/assets/img/logo-net-small.png"
         inkscape:export-xdpi="8.0090485"
         inkscape:export-ydpi="8.0090485" />
      <path
         inkscape:export-ydpi="8.0090485"
         inkscape:export-xdpi="8.0090485"
         inkscape:export-filename="/home/gerard/projects/freenet/marketing/newsite/assets/img/logo-net-small.png"
         sodipodi:nodetypes="cc"
         style="fill:none;stroke:#4aadff;stroke-width:14.12820816;stroke-linecap:butt;stroke-linejoin:miter;stroke-miterlimit:4;stroke-opacity:1;stroke-dasharray:none;stroke-dashoffset:0;display:inline"
         d="m 512.93047,644.84907 -31.12148,-65.0313"
         id="path4360"
         inkscape:connector-curvature="0" />
      <path
         inkscape:export-ydpi="8.0090485"
         inkscape:export-xdpi="8.0090485"
         inkscape:export-filename="/home/gerard/projects/freenet/marketing/newsite/assets/img/logo-net-small.png"
         sodipodi:nodetypes="cc"
         style="fill:none;stroke:#4aadff;stroke-width:14.12820816;stroke-linecap:butt;stroke-linejoin:miter;stroke-miterlimit:4;stroke-opacity:1;stroke-dasharray:none;stroke-dashoffset:0;display:inline"
         d="M 352.02468,551.10395 306.9114,525.24972"
         id="path4362"
         inkscape:connector-curvature="0" />
      <path
         inkscape:export-ydpi="8.0090485"
         inkscape:export-xdpi="8.0090485"
         inkscape:export-filename="/home/gerard/projects/freenet/marketing/newsite/assets/img/logo-net-small.png"
         sodipodi:nodetypes="cc"
         style="fill:none;stroke:#4aadff;stroke-width:14.12820816;stroke-linecap:butt;stroke-linejoin:miter;stroke-miterlimit:4;stroke-opacity:1;stroke-dasharray:none;stroke-dashoffset:0;display:inline"
         d="m 235.10924,627.69526 40.85043,50.06517"
         id="path4634"
         inkscape:connector-curvature="0" />
      <path
         inkscape:export-ydpi="8.0090485"
         inkscape:export-xdpi="8.0090485"
         inkscape:export-filename="/home/gerard/projects/freenet/marketing/newsite/assets/img/logo-net-small.png"
         sodipodi:nodetypes="cc"
         style="fill:none;stroke:#4aadff;stroke-width:14.12820816;stroke-linecap:butt;stroke-linejoin:miter;stroke-miterlimit:4;stroke-opacity:1;stroke-dasharray:none;stroke-dashoffset:0;display:inline"
         d="M 508.34519,646.0835 278.91573,678.59711"
         id="path4636"
         inkscape:connector-curvature="0" />
      <path
         sodipodi:type="arc"
         style="fill:#4aadff;fill-opacity:1;stroke:none;display:inline"
         id="path4283"
         sodipodi:cx="327.85715"
         sodipodi:cy="361.64789"
         sodipodi:rx="12.142858"
         sodipodi:ry="12.142858"
         d="m 340,361.64789 c 0,6.70631 -5.43654,12.14286 -12.14285,12.14286 -6.70632,0 -12.14286,-5.43655 -12.14286,-12.14286 0,-6.70632 5.43654,-12.14286 12.14286,-12.14286 6.70631,0 12.14285,5.43654 12.14285,12.14286 z"
         transform="matrix(1.3851183,0,0,1.3851183,-145.3011,24.12279)"
         inkscape:export-filename="/home/gerard/projects/freenet/marketing/newsite/assets/img/logo-net-small.png"
         inkscape:export-xdpi="8.0090485"
         inkscape:export-ydpi="8.0090485" />
      <path
         inkscape:export-ydpi="8.0090485"
         inkscape:export-xdpi="8.0090485"
         inkscape:export-filename="/home/gerard/projects/freenet/marketing/newsite/assets/img/logo-net-small.png"
         transform="matrix(1.3851183,0,0,1.3851183,-38.880985,-72.18062)"
         d="m 340,361.64789 c 0,6.70631 -5.43654,12.14286 -12.14285,12.14286 -6.70632,0 -12.14286,-5.43655 -12.14286,-12.14286 0,-6.70632 5.43654,-12.14286 12.14286,-12.14286 6.70631,0 12.14285,5.43654 12.14285,12.14286 z"
         sodipodi:ry="12.142858"
         sodipodi:rx="12.142858"
         sodipodi:cy="361.64789"
         sodipodi:cx="327.85715"
         id="path4328"
         style="fill:#4aadff;fill-opacity:1;stroke:none;display:inline"
         sodipodi:type="arc" />
      <path
         sodipodi:type="arc"
         style="fill:#4aadff;fill-opacity:1;stroke:none;display:inline"
         id="path4330"
         sodipodi:cx="327.85715"
         sodipodi:cy="361.64789"
         sodipodi:rx="12.142858"
         sodipodi:ry="12.142858"
         d="m 340,361.64789 c 0,6.70631 -5.43654,12.14286 -12.14285,12.14286 -6.70632,0 -12.14286,-5.43655 -12.14286,-12.14286 0,-6.70632 5.43654,-12.14286 12.14286,-12.14286 6.70631,0 12.14285,5.43654 12.14285,12.14286 z"
         transform="matrix(1.3851183,0,0,1.3851183,-99.128133,47.90886)"
         inkscape:export-filename="/home/gerard/projects/freenet/marketing/newsite/assets/img/logo-net-small.png"
         inkscape:export-xdpi="8.0090485"
         inkscape:export-ydpi="8.0090485" />
      <path
         inkscape:export-ydpi="8.0090485"
         inkscape:export-xdpi="8.0090485"
         inkscape:export-filename="/home/gerard/projects/freenet/marketing/newsite/assets/img/logo-net-small.png"
         transform="matrix(1.3851183,0,0,1.3851183,29.596497,75.89247)"
         d="m 340,361.64789 c 0,6.70631 -5.43654,12.14286 -12.14285,12.14286 -6.70632,0 -12.14286,-5.43655 -12.14286,-12.14286 0,-6.70632 5.43654,-12.14286 12.14286,-12.14286 6.70631,0 12.14285,5.43654 12.14285,12.14286 z"
         sodipodi:ry="12.142858"
         sodipodi:rx="12.142858"
         sodipodi:cy="361.64789"
         sodipodi:cx="327.85715"
         id="path4332"
         style="fill:#4aadff;fill-opacity:1;stroke:none;display:inline"
         sodipodi:type="arc" />
      <path
         sodipodi:type="arc"
         style="fill:#4aadff;fill-opacity:1;stroke:none;display:inline"
         id="path4334"
         sodipodi:cx="327.85715"
         sodipodi:cy="361.64789"
         sodipodi:rx="12.142858"
         sodipodi:ry="12.142858"
         d="m 340,361.64789 c 0,6.70631 -5.43654,12.14286 -12.14285,12.14286 -6.70632,0 -12.14286,-5.43655 -12.14286,-12.14286 0,-6.70632 5.43654,-12.14286 12.14286,-12.14286 6.70631,0 12.14285,5.43654 12.14285,12.14286 z"
         transform="matrix(1.3851183,0,0,1.3851183,115.11627,72.61399)"
         inkscape:export-filename="/home/gerard/projects/freenet/marketing/newsite/assets/img/logo-net-small.png"
         inkscape:export-xdpi="8.0090485"
         inkscape:export-ydpi="8.0090485" />
      <path
         inkscape:export-ydpi="8.0090485"
         inkscape:export-xdpi="8.0090485"
         inkscape:export-filename="/home/gerard/projects/freenet/marketing/newsite/assets/img/logo-net-small.png"
         transform="matrix(1.3851183,0,0,1.3851183,60.37847,144.45232)"
         d="m 340,361.64789 c 0,6.70631 -5.43654,12.14286 -12.14285,12.14286 -6.70632,0 -12.14286,-5.43655 -12.14286,-12.14286 0,-6.70632 5.43654,-12.14286 12.14286,-12.14286 6.70631,0 12.14285,5.43654 12.14285,12.14286 z"
         sodipodi:ry="12.142858"
         sodipodi:rx="12.142858"
         sodipodi:cy="361.64789"
         sodipodi:cx="327.85715"
         id="path4336"
         style="fill:#4aadff;fill-opacity:1;stroke:none;display:inline"
         sodipodi:type="arc" />
      <path
         sodipodi:type="arc"
         style="fill:#4aadff;fill-opacity:1;stroke:none;display:inline"
         id="path4338"
         sodipodi:cx="327.85715"
         sodipodi:cy="361.64789"
         sodipodi:rx="12.142858"
         sodipodi:ry="12.142858"
         d="m 340,361.64789 c 0,6.70631 -5.43654,12.14286 -12.14285,12.14286 -6.70632,0 -12.14286,-5.43655 -12.14286,-12.14286 0,-6.70632 5.43654,-12.14286 12.14286,-12.14286 6.70631,0 12.14285,5.43654 12.14285,12.14286 z"
         transform="matrix(1.3851183,0,0,1.3851183,262.84988,284.70989)"
         inkscape:export-filename="/home/gerard/projects/freenet/marketing/newsite/assets/img/logo-net-small.png"
         inkscape:export-xdpi="8.0090485"
         inkscape:export-ydpi="8.0090485" />
      <path
         inkscape:export-ydpi="8.0090485"
         inkscape:export-xdpi="8.0090485"
         inkscape:export-filename="/home/gerard/projects/freenet/marketing/newsite/assets/img/logo-net-small.png"
         transform="matrix(1.3851183,0,0,1.3851183,227.53086,351.53107)"
         d="m 340,361.64789 c 0,6.70631 -5.43654,12.14286 -12.14285,12.14286 -6.70632,0 -12.14286,-5.43655 -12.14286,-12.14286 0,-6.70632 5.43654,-12.14286 12.14286,-12.14286 6.70631,0 12.14285,5.43654 12.14285,12.14286 z"
         sodipodi:ry="12.142858"
         sodipodi:rx="12.142858"
         sodipodi:cy="361.64789"
         sodipodi:cx="327.85715"
         id="path4340"
         style="fill:#4aadff;fill-opacity:1;stroke:none;display:inline"
         sodipodi:type="arc" />
      <path
         sodipodi:type="arc"
         style="fill:#4aadff;fill-opacity:1;stroke:none;display:inline"
         id="path4342"
         sodipodi:cx="327.85715"
         sodipodi:cy="361.64789"
         sodipodi:rx="12.142858"
         sodipodi:ry="12.142858"
         d="m 340,361.64789 c 0,6.70631 -5.43654,12.14286 -12.14285,12.14286 -6.70632,0 -12.14286,-5.43655 -12.14286,-12.14286 0,-6.70632 5.43654,-12.14286 12.14286,-12.14286 6.70631,0 12.14285,5.43654 12.14285,12.14286 z"
         transform="matrix(1.3851183,0,0,1.3851183,92.559643,242.39496)"
         inkscape:export-filename="/home/gerard/projects/freenet/marketing/newsite/assets/img/logo-net-small.png"
         inkscape:export-xdpi="8.0090485"
         inkscape:export-ydpi="8.0090485" />
      <path
         inkscape:export-ydpi="8.0090485"
         inkscape:export-xdpi="8.0090485"
         inkscape:export-filename="/home/gerard/projects/freenet/marketing/newsite/assets/img/logo-net-small.png"
         transform="matrix(1.3851183,0,0,1.3851183,-176.25282,178.03264)"
         d="m 340,361.64789 c 0,6.70631 -5.43654,12.14286 -12.14285,12.14286 -6.70632,0 -12.14286,-5.43655 -12.14286,-12.14286 0,-6.70632 5.43654,-12.14286 12.14286,-12.14286 6.70631,0 12.14285,5.43654 12.14285,12.14286 z"
         sodipodi:ry="12.142858"
         sodipodi:rx="12.142858"
         sodipodi:cy="361.64789"
         sodipodi:cx="327.85715"
         id="path4344"
         style="fill:#4aadff;fill-opacity:1;stroke:none;display:inline"
         sodipodi:type="arc" />
      <path
         sodipodi:type="arc"
         style="fill:#4aadff;fill-opacity:1;stroke:none;display:inline"
         id="path4346"
         sodipodi:cx="327.85715"
         sodipodi:cy="361.64789"
         sodipodi:rx="12.142858"
         sodipodi:ry="12.142858"
         d="m 340,361.64789 c 0,6.70631 -5.43654,12.14286 -12.14285,12.14286 -6.70632,0 -12.14286,-5.43655 -12.14286,-12.14286 0,-6.70632 5.43654,-12.14286 12.14286,-12.14286 6.70631,0 12.14285,5.43654 12.14285,12.14286 z"
         transform="matrix(1.3851183,0,0,1.3851183,-397.63375,191.99533)"
         inkscape:export-filename="/home/gerard/projects/freenet/marketing/newsite/assets/img/logo-net-small.png"
         inkscape:export-xdpi="8.0090485"
         inkscape:export-ydpi="8.0090485" />
      <path
         inkscape:export-ydpi="8.0090485"
         inkscape:export-xdpi="8.0090485"
         inkscape:export-filename="/home/gerard/projects/freenet/marketing/newsite/assets/img/logo-net-small.png"
         transform="matrix(1.3851183,0,0,1.3851183,-220.85685,123.46459)"
         d="m 340,361.64789 c 0,6.70631 -5.43654,12.14286 -12.14285,12.14286 -6.70632,0 -12.14286,-5.43655 -12.14286,-12.14286 0,-6.70632 5.43654,-12.14286 12.14286,-12.14286 6.70631,0 12.14285,5.43654 12.14285,12.14286 z"
         sodipodi:ry="12.142858"
         sodipodi:rx="12.142858"
         sodipodi:cy="361.64789"
         sodipodi:cx="327.85715"
         id="path4348"
         style="fill:#4aadff;fill-opacity:1;stroke:none;display:inline"
         sodipodi:type="arc" />
      <path
         sodipodi:type="arc"
         style="fill:#4aadff;fill-opacity:1;stroke:none;display:inline"
         id="path4350"
         sodipodi:cx="327.85715"
         sodipodi:cy="361.64789"
         sodipodi:rx="12.142858"
         sodipodi:ry="12.142858"
         d="m 340,361.64789 c 0,6.70631 -5.43654,12.14286 -12.14285,12.14286 -6.70632,0 -12.14286,-5.43655 -12.14286,-12.14286 0,-6.70632 5.43654,-12.14286 12.14286,-12.14286 6.70631,0 12.14285,5.43654 12.14285,12.14286 z"
         transform="matrix(1.3851183,0,0,1.3851183,-275.42489,57.70311)"
         inkscape:export-filename="/home/gerard/projects/freenet/marketing/newsite/assets/img/logo-net-small.png"
         inkscape:export-xdpi="8.0090485"
         inkscape:export-ydpi="8.0090485" />
      <path
         sodipodi:type="arc"
         style="fill:#4aadff;fill-opacity:1;stroke:none;display:inline"
         id="path4364"
         sodipodi:cx="327.85715"
         sodipodi:cy="361.64789"
         sodipodi:rx="12.142858"
         sodipodi:ry="12.142858"
         d="m 340,361.64789 c 0,6.70631 -5.43654,12.14286 -12.14285,12.14286 -6.70632,0 -12.14286,-5.43655 -12.14286,-12.14286 0,-6.70632 5.43654,-12.14286 12.14286,-12.14286 6.70631,0 12.14285,5.43654 12.14285,12.14286 z"
         transform="matrix(1.3851183,0,0,1.3851183,2.772001,-41.58045)"
         inkscape:export-filename="/home/gerard/projects/freenet/marketing/newsite/assets/img/logo-net-small.png"
         inkscape:export-xdpi="8.0090485"
         inkscape:export-ydpi="8.0090485" />
      <path
         inkscape:export-ydpi="8.0090485"
         inkscape:export-xdpi="8.0090485"
         inkscape:export-filename="/home/gerard/projects/freenet/marketing/newsite/assets/img/logo-net-small.png"
         transform="matrix(1.3851183,0,0,1.3851183,-366.96327,248.38944)"
         d="m 340,361.64789 c 0,6.70631 -5.43654,12.14286 -12.14285,12.14286 -6.70632,0 -12.14286,-5.43655 -12.14286,-12.14286 0,-6.70632 5.43654,-12.14286 12.14286,-12.14286 6.70631,0 12.14285,5.43654 12.14285,12.14286 z"
         sodipodi:ry="12.142858"
         sodipodi:rx="12.142858"
         sodipodi:cy="361.64789"
         sodipodi:cx="327.85715"
         id="path4366"
         style="fill:#4aadff;fill-opacity:1;stroke:none;display:inline"
         sodipodi:type="arc" />
      <path
         style="fill:none;stroke:#4baafa;stroke-width:14.12800026;stroke-linecap:butt;stroke-linejoin:miter;stroke-miterlimit:4;stroke-opacity:1;stroke-dasharray:none;stroke-dashoffset:0;display:inline"
         d="m 176.88703,559.85765 129.24886,-31.60158 110.03045,-97.01347 41.73715,26.78697 -111.28459,95.66561 131.52299,23.78607 90.87644,-6.10597 -54.49774,77.46419 198.68369,138.51889 -33.58034,64.36232 -131.523,-109.1361 L 265.46643,681.02063 88.068782,747.73029 55.589307,689.4157 233.28527,627.85175 z"
         id="path4293"
         inkscape:connector-curvature="0"
         sodipodi:nodetypes="cccccccccccccccc"
         inkscape:export-filename="/home/gerard/projects/freenet/marketing/newsite/assets/img/logo-net-small.png"
         inkscape:export-xdpi="8.0090485"
         inkscape:export-ydpi="8.0090485" />
    </g>
  </g>
</svg>
